# xmcd
#
# Track frame offsets:
#	150
#	15482
#	31915
#	48151
#	64162
#	80580
#	95455
#	111998
#	127903
#	145771
#	161066
#	176507
#
# Disc length: 2565 seconds
#
# Revision: 1
# Processed by: cddbd v1.5.2PL0 Copyright (c) Steve Scherf et al.
# Submitted via: audiograbber 1.83.01
#
DISCID=950a030c
DTITLE=Brandy Clark - 12 Stories
DYEAR=2014
DGENRE=Country
TTITLE0=Pray to Jesus
TTITLE1=Crazy Women
TTITLE2=What'll Keep Me Out of Heaven
TTITLE3=Get High
TTITLE4=Hold My Hand
TTITLE5=Stripes
TTITLE6=In Some Corner
TTITLE7=Take a Little Pill
TTITLE8=Hungover
TTITLE9=Illegitimate Children
TTITLE10=The Day She Got Divorced
TTITLE11=Just Like Him
EXTD=
EXTT0=
EXTT1=
EXTT2=
EXTT3=
EXTT4=
EXTT5=
EXTT6=
EXTT7=
EXTT8=
EXTT9=
EXTT10=
EXTT11=
PLAYORDER=
